# xmcd
#
# Track frame offsets: 
#        150
#        15917
#        36747
#        62587
#        77734
#        88184
#        121226
#        161724
#        190668
#        219031
#        241764
#        267174
#        288451
#        313615
#
# Disc length: 4510 seconds
#
# Revision: 0
# Processed by: cddbd v1.5.2PL0 Copyright (c) Steve Scherf et al.
# Submitted via: ExactAudioCopy v0.99pb5
#
DISCID=b6119c0e
DTITLE=Various Artist - Groove 132 CD 41
DYEAR=2011
DGENRE=Techno
TTITLE0=Axel Boman - What Do You Need?
TTITLE1=Aérea Negrot - Arabella
TTITLE2=Lee Foss - Someone New
TTITLE3=Turzi Électronique Expérience - Connaisance
TTITLE4=Roll The Dice - The Suck
TTITLE5=Jonsson;Alter - Dvärg
TTITLE6=Nikola Gala - The Beginning
TTITLE7=Floorplan - Baby Baby
TTITLE8=The Rapture - How Deep Is Your Love?
TTITLE9=The Exaltics - One Circle
TTITLE10=Cosmin TRG - Fizic
TTITLE11=Gui Boratto - Flying Practice
TTITLE12=Apparat - Ash,Black Veil
TTITLE13=Madteo - Bangin On The Ceiling
EXTD=
EXTT0=
EXTT1=
EXTT2=
EXTT3=
EXTT4=
EXTT5=
EXTT6=
EXTT7=
EXTT8=
EXTT9=
EXTT10=
EXTT11=
EXTT12=
EXTT13=
PLAYORDER=
